<?xml version="1.0" encoding="UTF-8"?>
<svg id="Layer_1" data-name="Layer 1" xmlns="http://www.w3.org/2000/svg" viewBox="0 0 174.53 175.02">
  <defs>
    <style>
      .cls-1 {
        fill: #fff;
      }

      .cls-2 {
        fill: #999;
      }
    </style>
  </defs>
  <path class="cls-2" d="M150.65,175.01l-125.71.02c-12.38-1.39-22.24-10.35-24.46-22.58l-.48-4.14L.2,26.18C.22,12.43,11.1,2.28,24.23.02l125.23-.02c13.16,1.37,23.46,11.34,25.07,24.49v125.88c-1.41,12.91-10.85,22.42-23.88,24.64ZM137.02,55.29c0-4.89-3.96-8.86-8.84-8.86s-8.84,3.97-8.84,8.86,3.96,8.86,8.84,8.86,8.84-3.97,8.84-8.86ZM87.44,110.53l7.21,18.01,19.79-.06-29.16-77.06-21.06.12-26.55,77.04,19.44-.03,5.09-18.08,25.23.06ZM119.2,69.91v58.63h17.91v-58.63h-17.91Z"/>
  <g>
    <g>
      <rect class="cls-1" x="119.2" y="69.91" width="17.91" height="58.63"/>
      <ellipse class="cls-1" cx="128.18" cy="55.29" rx="8.84" ry="8.86"/>
    </g>
    <g>
      <path class="cls-1" d="M87.44,110.53l-25.23-.06-5.09,18.08-19.44.03,26.55-77.04,21.06-.12,29.16,77.06-19.79.06-7.21-18.01ZM83.91,95.8l-9.13-28.06-8.21,28.02c5.79.19,11.29.19,17.34.04Z"/>
      <path class="cls-2" d="M83.91,95.8c-6.05.14-11.55.15-17.34-.04l8.21-28.02,9.13,28.06Z"/>
    </g>
  </g>
</svg>